# xmcd
# 
# Track frame offsets:
#     150
#     67382
#     134517
#     205412
# 
# Disc length: 3602
# 
# Revision: 4
# Processed by: cddbd v1.5.2PL0 Copyright (c) Steve Scherf et al.
# Submitted via: BonkEnc v1.0.6
# 
DISCID=430e1004
DTITLE=John Stettmayer - Scenes of Nature - Evening CD3
DYEAR=0
DGENRE=Meditative
TTITLE0=Early Evening (Früher Abend)
TTITLE1=Twilight (Dämmerung)
TTITLE2=Nightlife (Nachleben)
TTITLE3=Darkness (Dunkelheit)
EXTD=
EXTT0=
EXTT1=
EXTT2=
EXTT3=
PLAYORDER=
